<svg xmlns="http://www.w3.org/2000/svg" viewBox="0 0 512 512">
  <defs>
    <linearGradient id="grad" x1="0%" y1="0%" x2="100%" y2="100%">
      <stop offset="0%" style="stop-color:#a19eff;stop-opacity:1" />
      <stop offset="100%" style="stop-color:#818cf8;stop-opacity:1" />
    </linearGradient>
  </defs>
  <!-- Background -->
  <rect width="512" height="512" rx="100" fill="#0b0b1a"/>
  <!-- S shape with circuit design -->
  <path d="M320 160c0-44.2-35.8-80-80-80h-80c-22.1 0-40 17.9-40 40s17.9 40 40 40h80c22.1 0 40 17.9 40 40s-17.9 40-40 40h-40c-44.2 0-80 35.8-80 80v32c0 22.1 17.9 40 40 40s40-17.9 40-40v-32c0-22.1 17.9-40 40-40h40c44.2 0 80-35.8 80-80v-40z" fill="url(#grad)"/>
  <!-- Circuit nodes -->
  <circle cx="160" cy="120" r="12" fill="#a19eff"/>
  <circle cx="352" cy="392" r="12" fill="#a19eff"/>
  <circle cx="256" cy="256" r="8" fill="#a19eff" opacity="0.6"/>
  <!-- Circuit lines -->
  <line x1="160" y1="120" x2="120" y2="120" stroke="#a19eff" stroke-width="4" opacity="0.5"/>
  <line x1="352" y1="392" x2="392" y2="392" stroke="#a19eff" stroke-width="4" opacity="0.5"/>
</svg>
